<svg width="40" height="39" viewBox="0 0 40 39" fill="none" xmlns="http://www.w3.org/2000/svg">
<path d="M22.993 36.3878L21.011 38.3704C20.1719 39.2099 18.8149 39.2099 17.9846 38.3704L0.629394 21.0182C-0.209798 20.1787 -0.209798 18.8213 0.629394 17.9907L17.9846 0.629608C18.8238 -0.20987 20.1808 -0.20987 21.011 0.629608L22.993 2.61221C23.8411 3.46061 23.8232 4.84486 22.9573 5.67541L12.1995 15.9278H37.8574C39.0448 15.9278 40 16.8833 40 18.0711V20.9289C40 22.1167 39.0448 23.0722 37.8574 23.0722H12.1995L22.9573 33.3246C23.8322 34.1551 23.85 35.5394 22.993 36.3878Z" fill="white"/>
</svg>
